<?xml version="1.0" encoding="iso-8859-1"?>
<!-- Generator: Adobe Illustrator 18.0.0, SVG Export Plug-In . SVG Version: 6.00 Build 0)  -->
<!DOCTYPE svg PUBLIC "-//W3C//DTD SVG 1.1//EN" "http://www.w3.org/Graphics/SVG/1.1/DTD/svg11.dtd">
<svg version="1.1" id="Capa_1" xmlns="http://www.w3.org/2000/svg" xmlns:xlink="http://www.w3.org/1999/xlink" x="0px" y="0px"
	 viewBox="0 0 487.699 487.699" style="enable-background:new 0 0 487.699 487.699;" xml:space="preserve">
<g>
	<path d="M419.707,194.824H349.8v-9.651c0-5.799-4.701-10.5-10.5-10.5H148.399c-5.799,0-10.5,4.701-10.5,10.5v9.651H67.992
		c-5.799,0-10.5,4.701-10.5,10.5v47.549c0,13,5.063,25.223,14.256,34.415c9.193,9.193,21.415,14.256,34.415,14.256h34.425
		c10.053,43.704,47.216,77.167,92.763,81.669v47.266h-28.121c-16.242,0-29.457,13.214-29.457,29.456v17.265
		c0,5.799,4.701,10.5,10.5,10.5h115.155c5.799,0,10.5-4.701,10.5-10.5v-17.265c0-16.242-13.215-29.456-29.457-29.456h-28.12v-47.267
		c45.547-4.502,82.709-37.965,92.762-81.668h34.424c26.838,0,48.672-21.834,48.672-48.672v-47.548
		C430.207,199.525,425.506,194.824,419.707,194.824z M290.927,459.935v6.765h-94.155v-6.765c0-4.663,3.794-8.456,8.457-8.456h77.241
		C287.133,451.478,290.927,455.271,290.927,459.935z M137.916,280.544h-31.754c-7.391,0-14.34-2.878-19.565-8.104
		c-5.228-5.227-8.105-12.176-8.105-19.566v-37.049h59.425V280.544z M328.8,277.781c0,46.842-38.109,84.951-84.951,84.951
		s-84.95-38.109-84.95-84.951v-82.108H328.8V277.781z M349.782,215.824h59.426v37.048c0,15.258-12.413,27.672-27.672,27.672h-31.754
		V215.824z"/>
	<path d="M199.258,96.704l-7.878,41.575c-0.757,3.991,0.857,8.061,4.145,10.449c3.288,2.388,7.656,2.666,11.219,0.713l37.105-20.339
		l37.107,20.339c1.578,0.865,3.315,1.292,5.046,1.292c2.176,0,4.342-0.675,6.173-2.005c3.286-2.388,4.9-6.458,4.145-10.449
		l-7.876-41.575L319.251,67.7c2.958-2.785,4.044-7.026,2.789-10.89c-1.256-3.864-4.627-6.657-8.657-7.171l-41.976-5.355
		L253.344,6.018C251.61,2.344,247.912,0,243.849,0s-7.761,2.344-9.495,6.018L216.29,44.284l-41.975,5.355
		c-4.03,0.514-7.401,3.307-8.657,7.171c-1.255,3.863-0.169,8.106,2.789,10.89L199.258,96.704z M224.658,64.387
		c3.557-0.454,6.636-2.691,8.166-5.934l11.025-23.356l11.025,23.356c1.53,3.242,4.609,5.479,8.166,5.934l25.622,3.269
		l-18.805,17.703c-2.61,2.458-3.786,6.077-3.119,9.6l4.808,25.378l-22.65-12.415c-1.572-0.862-3.31-1.293-5.047-1.293
		c-1.737,0-3.475,0.431-5.047,1.293l-22.648,12.414l4.809-25.377c0.668-3.522-0.509-7.143-3.119-9.6l-18.806-17.703L224.658,64.387z
		"/>
	<path d="M461.295,94.273c-1.256-3.864-4.627-6.657-8.657-7.171L422.37,83.24l-13.025-27.594c-1.734-3.674-5.433-6.018-9.495-6.018
		s-7.761,2.344-9.495,6.018L377.329,83.24l-30.268,3.862c-4.03,0.514-7.401,3.307-8.657,7.171c-1.255,3.863-0.169,8.105,2.789,10.89
		l22.218,20.914l-5.682,29.979c-0.757,3.991,0.857,8.062,4.145,10.449c1.831,1.33,3.997,2.006,6.173,2.006
		c1.73,0,3.468-0.428,5.046-1.293l26.757-14.666l26.758,14.666c3.563,1.954,7.932,1.676,11.219-0.713
		c3.286-2.388,4.9-6.457,4.145-10.449l-5.68-29.979l22.216-20.914C461.464,102.378,462.55,98.137,461.295,94.273z M417.706,114.732
		c-2.61,2.457-3.786,6.077-3.119,9.6l2.611,13.782l-12.302-6.742c-1.572-0.862-3.31-1.293-5.047-1.293s-3.475,0.431-5.047,1.293
		l-12.299,6.741l2.611-13.781c0.668-3.522-0.509-7.143-3.119-9.601l-10.213-9.613l13.913-1.775c3.557-0.453,6.636-2.69,8.166-5.933
		l5.987-12.684l5.987,12.684c1.53,3.242,4.609,5.479,8.166,5.933l13.915,1.775L417.706,114.732z"/>
	<path d="M87.849,152.553l26.758,14.666c3.563,1.954,7.932,1.676,11.219-0.713c3.286-2.388,4.9-6.457,4.145-10.449l-5.68-29.979
		l22.216-20.914c2.958-2.785,4.044-7.026,2.789-10.89c-1.256-3.864-4.627-6.657-8.657-7.171L110.37,83.24L97.344,55.646
		c-1.734-3.674-5.433-6.018-9.495-6.018s-7.761,2.344-9.495,6.018L65.329,83.24l-30.268,3.862c-4.03,0.514-7.401,3.307-8.657,7.171
		c-1.255,3.863-0.169,8.105,2.789,10.89l22.218,20.914l-5.682,29.979c-0.757,3.991,0.857,8.062,4.145,10.449
		c1.831,1.33,3.997,2.006,6.173,2.006c1.731,0,3.468-0.428,5.046-1.293L87.849,152.553z M73.696,103.343
		c3.557-0.453,6.636-2.69,8.166-5.933l5.987-12.684l5.987,12.684c1.53,3.242,4.609,5.479,8.166,5.933l13.915,1.775l-10.212,9.614
		c-2.61,2.457-3.786,6.077-3.119,9.6l2.611,13.782l-12.302-6.742c-1.572-0.862-3.31-1.293-5.047-1.293
		c-1.737,0-3.475,0.431-5.047,1.293l-12.299,6.741l2.611-13.781c0.668-3.522-0.509-7.143-3.119-9.601l-10.213-9.613L73.696,103.343z
		"/>
</g>
<g>
</g>
<g>
</g>
<g>
</g>
<g>
</g>
<g>
</g>
<g>
</g>
<g>
</g>
<g>
</g>
<g>
</g>
<g>
</g>
<g>
</g>
<g>
</g>
<g>
</g>
<g>
</g>
<g>
</g>
</svg>
